<?xml version="1.0" encoding="iso-8859-1"?>
<!-- Generator: Adobe Illustrator 17.1.0, SVG Export Plug-In . SVG Version: 6.00 Build 0)  -->
<!DOCTYPE svg PUBLIC "-//W3C//DTD SVG 1.1//EN" "http://www.w3.org/Graphics/SVG/1.1/DTD/svg11.dtd">
<svg version="1.1" id="Capa_1" xmlns="http://www.w3.org/2000/svg" xmlns:xlink="http://www.w3.org/1999/xlink" x="0px" y="0px"
	 viewBox="0 0 448 448" style="enable-background:new 0 0 448 448;" xml:space="preserve">
<g>
	<path d="M408,0H40C17.944,0,0,17.944,0,40v368c0,22.056,17.944,40,40,40h368c22.056,0,40-17.944,40-40V40
		C448,17.944,430.056,0,408,0z M432,408c0,13.234-10.766,24-24,24H40c-13.234,0-24-10.766-24-24V40c0-13.234,10.766-24,24-24h368
		c13.234,0,24,10.766,24,24V408z"/>
	<path d="M112,176c35.29,0,64-28.71,64-64c0-9.6-2.076-18.834-6.169-27.447c-1.897-3.991-6.671-5.688-10.66-3.792
		c-3.991,1.897-5.688,6.669-3.792,10.66C158.445,97.872,160,104.795,160,112c0,26.467-21.533,48-48,48s-48-21.533-48-48
		s21.533-48,48-48c7.204,0,14.126,1.554,20.576,4.62c3.991,1.896,8.763,0.199,10.66-3.792c1.896-3.991,0.199-8.763-3.792-10.66
		C130.832,50.075,121.599,48,112,48c-35.29,0-64,28.71-64,64S76.71,176,112,176z"/>
	<path d="M96,112c0-4.418-3.582-8-8-8s-8,3.582-8,8c0,17.645,14.355,32,32,32c4.418,0,8-3.582,8-8s-3.582-8-8-8
		C103.178,128,96,120.822,96,112z"/>
	<path d="M383.171,80.762c-3.991,1.897-5.688,6.669-3.792,10.66C382.445,97.872,384,104.795,384,112c0,26.467-21.533,48-48,48
		s-48-21.533-48-48s21.533-48,48-48c7.204,0,14.126,1.554,20.576,4.62c3.991,1.896,8.763,0.199,10.66-3.792
		c1.896-3.991,0.199-8.763-3.792-10.66C354.832,50.075,345.599,48,336,48c-35.29,0-64,28.71-64,64s28.71,64,64,64s64-28.71,64-64
		c0-9.6-2.076-18.834-6.169-27.447C391.933,80.563,387.161,78.865,383.171,80.762z"/>
	<path d="M320,112c0-4.418-3.582-8-8-8s-8,3.582-8,8c0,17.645,14.355,32,32,32c4.418,0,8-3.582,8-8s-3.582-8-8-8
		C327.178,128,320,120.822,320,112z"/>
	<path d="M159.171,304.762c-3.991,1.897-5.688,6.669-3.792,10.66C158.445,321.872,160,328.795,160,336c0,26.467-21.533,48-48,48
		s-48-21.533-48-48s21.533-48,48-48c7.204,0,14.126,1.554,20.576,4.62c3.991,1.896,8.763,0.199,10.66-3.792
		c1.896-3.991,0.199-8.763-3.792-10.66C130.832,274.075,121.599,272,112,272c-35.29,0-64,28.71-64,64s28.71,64,64,64s64-28.71,64-64
		c0-9.6-2.076-18.834-6.169-27.447C167.934,304.563,163.16,302.865,159.171,304.762z"/>
	<path d="M96,336c0-4.418-3.582-8-8-8s-8,3.582-8,8c0,17.645,14.355,32,32,32c4.418,0,8-3.582,8-8s-3.582-8-8-8
		C103.178,352,96,344.822,96,336z"/>
	<path d="M383.171,304.762c-3.991,1.897-5.688,6.669-3.792,10.66C382.445,321.872,384,328.795,384,336c0,26.467-21.533,48-48,48
		s-48-21.533-48-48s21.533-48,48-48c7.204,0,14.126,1.554,20.576,4.62c3.991,1.896,8.763,0.199,10.66-3.792
		c1.896-3.991,0.199-8.763-3.792-10.66C354.832,274.075,345.599,272,336,272c-35.29,0-64,28.71-64,64s28.71,64,64,64s64-28.71,64-64
		c0-9.6-2.076-18.834-6.169-27.447C391.933,304.563,387.161,302.865,383.171,304.762z"/>
	<path d="M320,336c0-4.418-3.582-8-8-8s-8,3.582-8,8c0,17.645,14.355,32,32,32c4.418,0,8-3.582,8-8s-3.582-8-8-8
		C327.178,352,320,344.822,320,336z"/>
	<path d="M281.831,196.553c-1.897-3.99-6.67-5.688-10.66-3.792c-3.991,1.897-5.688,6.669-3.792,10.66
		C270.445,209.872,272,216.795,272,224c0,26.467-21.533,48-48,48s-48-21.533-48-48s21.533-48,48-48
		c7.204,0,14.126,1.554,20.576,4.62c3.99,1.896,8.763,0.199,10.66-3.792c1.896-3.991,0.199-8.763-3.792-10.66
		C242.832,162.075,233.599,160,224,160c-35.29,0-64,28.71-64,64s28.71,64,64,64s64-28.71,64-64
		C288,214.4,285.924,205.166,281.831,196.553z"/>
	<path d="M208,224c0-4.418-3.582-8-8-8s-8,3.582-8,8c0,17.645,14.355,32,32,32c4.418,0,8-3.582,8-8s-3.582-8-8-8
		C215.178,240,208,232.822,208,224z"/>
</g>
<g>
</g>
<g>
</g>
<g>
</g>
<g>
</g>
<g>
</g>
<g>
</g>
<g>
</g>
<g>
</g>
<g>
</g>
<g>
</g>
<g>
</g>
<g>
</g>
<g>
</g>
<g>
</g>
<g>
</g>
</svg>
